<svg version="1.1" id="Layer_1" xmlns="http://www.w3.org/2000/svg" xmlns:xlink="http://www.w3.org/1999/xlink" x="0px" y="0px" viewBox="0 0 500 500" style="width: 151px;" xml:space="preserve" data-imageid="bug-fixing-30" imageName="Bug Fixing" class="illustrations_image">
<style type="text/css">
	.st0_bug-fixing-30{fill:#FFD62C;}
	.st1_bug-fixing-30{fill:url(#SVGID_1_);}
	.st2_bug-fixing-30{fill:url(#SVGID_00000126320404727097929850000014997817676711900801_);}
	.st3_bug-fixing-30{fill:url(#SVGID_00000023985851905237879690000018024672538324536720_);}
	.st4_bug-fixing-30{fill:url(#SVGID_00000047781070728655880720000009553795215203968680_);}
	.st5_bug-fixing-30{fill:url(#SVGID_00000118363705590044267260000001767878362775558532_);}
	.st6_bug-fixing-30{fill:#34323D;}
	.st7_bug-fixing-30{fill:#666666;}
	.st8_bug-fixing-30{fill:#C63C3C;}
	.st9_bug-fixing-30{fill:#FF8D8D;}
	.st10_bug-fixing-30{fill:#414CD8;}
	.st11_bug-fixing-30{fill:#68E1FD;}
	.st12_bug-fixing-30{fill:#FCBF81;}
</style>
<path id="Base" class="st0_bug-fixing-30" d="M293.2,160.3L473,263.9c3.5,2,4.7,6.5,2.7,10c-0.6,1.1-1.6,2-2.7,2.7L219.4,422.1&#xA;&#9;c-6.1,3.5-13.7,3.6-19.9,0.2L24.6,327.1c-3.5-1.9-4.8-6.4-2.9-9.9c0.6-1.2,1.6-2.2,2.8-2.8l271.3-157"/>
<g id="shadow">
	
		<linearGradient id="SVGID_1_-bug-fixing-30" gradientUnits="userSpaceOnUse" x1="286.4868" y1="-2462.4675" x2="251.8069" y2="-2505.4375" gradientTransform="matrix(1 0 0 1 0 2803.02)">
		<stop offset="0" style="stop-color:#FFD62C"/>
		<stop offset="0.99" style="stop-color:#FBB03B"/>
	</linearGradient>
	<path class="st1_bug-fixing-30" d="M319.9,319.8l-51.7-32.5l-52.6,27.8l57,34.6C285.5,341.3,307.4,328.7,319.9,319.8z"/>
	
		<linearGradient id="SVGID_00000018229647551766813480000010538651028069411715_-bug-fixing-30" gradientUnits="userSpaceOnUse" x1="128.6176" y1="-2438.6182" x2="93.7076" y2="-2481.8582" gradientTransform="matrix(1 0 0 1 0 2803.02)">
		<stop offset="0" style="stop-color:#FFD62C"/>
		<stop offset="0.99" style="stop-color:#FBB03B"/>
	</linearGradient>
	<path style="fill:url(#SVGID_00000018229647551766813480000010538651028069411715_);" d="M153.7,350.4l-56.5-29.5l-31.3,11&#xA;&#9;&#9;l61.4,36.1C140.2,359.5,141.2,359.3,153.7,350.4z"/>
	
		<linearGradient id="SVGID_00000085969530900918249120000000931638954491851397_-bug-fixing-30" gradientUnits="userSpaceOnUse" x1="436.3972" y1="-2501.9878" x2="422.9072" y2="-2518.7078" gradientTransform="matrix(1 0 0 1 0 2803.02)">
		<stop offset="0" style="stop-color:#FFD62C"/>
		<stop offset="0.99" style="stop-color:#FBB03B"/>
	</linearGradient>
	<polyline style="fill:url(#SVGID_00000085969530900918249120000000931638954491851397_);" points="396.8,300.8 415.8,309.4 &#xA;&#9;&#9;461.4,283.2 437.5,271.3 &#9;"/>
	
		<linearGradient id="SVGID_00000053539297914459499600000009758349291047488958_-bug-fixing-30" gradientUnits="userSpaceOnUse" x1="328.7155" y1="-2450.9143" x2="294.5955" y2="-2493.1843" gradientTransform="matrix(1 0 0 1 0 2803.02)">
		<stop offset="0" style="stop-color:#FFD62C"/>
		<stop offset="0.99" style="stop-color:#FBB03B"/>
	</linearGradient>
	<path style="fill:url(#SVGID_00000053539297914459499600000009758349291047488958_);" d="M358.3,334.3l-51.8-32.9l-44.1,22.9&#xA;&#9;&#9;l57,34.7C332.2,350.6,345.9,343.3,358.3,334.3z"/>
	
		<linearGradient id="SVGID_00000017517703114019385970000016421888153079224242_-bug-fixing-30" gradientUnits="userSpaceOnUse" x1="252.5708" y1="-2399.6907" x2="234.6108" y2="-2421.9407" gradientTransform="matrix(1 0 0 1 0 2803.02)">
		<stop offset="0" style="stop-color:#FFD62C"/>
		<stop offset="0.99" style="stop-color:#FBB03B"/>
	</linearGradient>
	<polyline style="fill:url(#SVGID_00000017517703114019385970000016421888153079224242_);" points="197.1,405.3 217.5,416 &#xA;&#9;&#9;288.7,377.4 259.1,364.1 &#9;"/>
</g>
<g id="hammer">
	<polygon class="st6_bug-fixing-30" points="275.1,377.4 275.1,368.3 282,365 282,373.9 &#9;"/>
	<polygon class="st7_bug-fixing-30" points="282,365 249.9,347.5 243.3,351.4 275.1,368.3 &#9;"/>
	<polyline class="st6_bug-fixing-30" points="243.3,351.4 243.3,361.3 275.1,377.4 275.1,368.3 &#9;"/>
	<path class="st7_bug-fixing-30" d="M265.7,369.6c-0.2-0.5-0.4-0.9-0.7-1.3c-0.8-1-1.8-1.8-2.8-2.5c-1-0.6-2.1-1.1-3.1-1.7&#xA;&#9;&#9;c-0.6-0.4-1.2-0.8-1.8-1.1c-0.7-0.4-1.3-0.7-2.1-1c-1.6-0.4-3.6,1.1-5.1,2l-5.9,3.4l-8.9,5.1l-10.6,6l-10.9,6.2l-9.9,5.6l-7.4,4.2&#xA;&#9;&#9;l-3.6,2l-0.1,0.1c-1.4,0.4-2.4,1.6-2.4,3.1v0.4c0,1.2,0.7,2.2,1.7,2.8l8.2,4.4c1.2,0.6,2.6,0.5,3.6-0.4l57.2-32.9l0.8-0.4&#xA;&#9;&#9;c1-1,2.7-1.3,3.8-3.3C265.8,369.9,265.7,369.8,265.7,369.6z"/>
	<path class="st6_bug-fixing-30" d="M204.4,406.5l61-35c0.5-0.3,0.7-0.8,0.6-1.4c-0.1-0.6-0.4-1.2-0.8-1.8c-0.6-0.7-1.3-1.3-2-1.9l-59.9,35.3&#xA;&#9;&#9;c0.8,0.7,1.2,1.6,1.4,2.6c0.1,0.6,0,1.2-0.3,1.8C204.4,406.3,204.4,406.4,204.4,406.5z"/>
</g>
<g id="Boxes">
	<polygon class="st8_bug-fixing-30" points="350.1,243.1 396.8,221.2 442.8,243.1 396.8,266.7 &#9;"/>
	<polygon class="st6_bug-fixing-30" points="398.1,240.4 409.5,234.3 415.8,237.3 400.1,246.1 &#9;"/>
	<polygon class="st8_bug-fixing-30" points="350.1,243.1 396.8,266.7 396.8,300.8 350.1,277.7 &#9;"/>
	<polygon class="st9_bug-fixing-30" points="396.8,266.7 442.8,243.1 442.8,276.6 396.8,300.8 &#9;"/>
	<polygon class="st9_bug-fixing-30" points="350.1,243.1 373.5,225.5 419.8,249.5 396.8,266.7 &#9;"/>
	<polygon class="st9_bug-fixing-30" points="376.3,223.6 396.8,221.2 442.8,243.1 439.2,244.9 423.6,247.3 &#9;"/>
	<polygon class="st8_bug-fixing-30" points="53,278.2 78.2,266.4 103,278.2 78.2,290.9 &#9;"/>
	<polygon class="st6_bug-fixing-30" points="78.9,276.8 85.1,273.4 88.4,275.1 79.9,279.8 &#9;"/>
	<polygon class="st8_bug-fixing-30" points="53,278.2 78.2,290.9 78.9,339.1 53,324.4 &#9;"/>
	<polygon class="st9_bug-fixing-30" points="78.2,290.9 103,278.2 103,325 78.9,339.1 &#9;"/>
	<polygon class="st9_bug-fixing-30" points="53,278.2 65.6,268.7 90.6,281.6 78.2,290.9 &#9;"/>
	<polygon class="st9_bug-fixing-30" points="67.2,267.7 78.2,266.4 103,278.2 101.1,279.2 92.6,280.5 &#9;"/>
</g>
<g id="screen">
	<path class="st6_bug-fixing-30" d="M228.5,273.2l41,15.4c0,0,1.7,1.1,0.6,3.8c-0.6,1.5-4,3.7-4,3.7l-35.4,20.6c-1.9,0.9-4,1.4-6.1,1.6&#xA;&#9;&#9;c-2.8,0.2-7.6-2.1-7.6-2.1l-32.9-19.1L228.5,273.2z"/>
	<path class="st10_bug-fixing-30" d="M229.1,271.3l39.1,16c0,0,2.7,1.5,2,3.5c-0.8,1.5-2,2.7-3.5,3.5l-35.5,20.4c-1.9,0.9-4,1.4-6.1,1.6&#xA;&#9;&#9;c-2.8,0.2-7.6-2.1-7.6-2.1l-31.2-17.7L229.1,271.3z"/>
	<path class="st10_bug-fixing-30" d="M136.6,325.1c-1.5,0.7-3.3,0.2-4.4-1.1c0,0-0.8-0.1-0.8-3.5v-156c0.1-2.7,1.3-5.3,3.4-7.1&#xA;&#9;&#9;c3.8-2.7,7.8-5.1,11.9-7.3L320.1,50.1l2-1c1.4-0.7,3-0.2,3.9,1c0.5,0.9,0.8,1.8,0.9,2.8c0.1,1.6,0,17.4,0,17.4v140.4&#xA;&#9;&#9;c0,2.7-1.1,5.3-3.2,7.2L136.6,325.1z"/>
	<path class="st11_bug-fixing-30 targetColor" d="M134.5,301.5V166.9c0-4.5,0.6-7,4.1-8.8L321.6,52.1c1.1-0.8,2.6-0.6,3.4,0.5c0,0,0,0,0,0&#xA;&#9;&#9;c0.3,0.4,0.5,0.9,0.5,1.5L325,192.5L134.5,301.5z"/>
	<path class="st6_bug-fixing-30" d="M198.3,229.6l4.8-8.4c0-0.1,0.1-0.1,0.1-0.1c0-0.1,0.1-0.1,0.1-0.1l2.6-1.4v-1.3c0,0,0-0.1,0-0.1&#xA;&#9;&#9;c0-0.2,0.1-0.5,0.3-0.6l2.4-1.4c0.4-0.2,0.4,0.5,0,0.7l-2.1,1.2v1.4c0,0.2-0.1,0.4-0.2,0.5c0,0.1-0.1,0.2-0.2,0.2l-2.6,1.5&#xA;&#9;&#9;l-4.8,8.2C198.5,230.3,198,230.1,198.3,229.6z"/>
	<path class="st6_bug-fixing-30" d="M199.1,230.4l11.8-6.5c0.4-0.2,0.4,0.5,0,0.7l-11.8,6.5C198.7,231.3,198.7,230.6,199.1,230.4z"/>
	<path class="st6_bug-fixing-30" d="M198.3,233l4.8,3.1c0,0,0.1,0,0.1,0c0,0,0.1,0,0.1,0l2.6-1.4v1.3c0,0,0,0.1,0,0.1c0,0.2,0,0.4,0.3,0.3l2.4-1.4&#xA;&#9;&#9;c0.4-0.2,0.4-1,0-0.7l-2.1,1.1v-1.4c0-0.2-0.1-0.2-0.2-0.2s-0.1,0-0.2,0l-2.6,1.4l-4.7-3.1C198.5,232.1,198,232.9,198.3,233z"/>
	<path class="st6_bug-fixing-30" d="M186,236.9l-4.8-3c0,0-0.1,0-0.1,0c0,0-0.1,0-0.1,0l-2.6,1.4V234c0,0,0-0.1,0-0.1c0-0.2,0-0.4-0.3-0.3&#xA;&#9;&#9;l-2.4,1.4c-0.4,0.2-0.4,0.9,0,0.7l2.1-1.2v1.4c0,0.2,0.1,0.2,0.2,0.2s0.1,0,0.2,0l2.6-1.4l4.7,3C185.9,237.8,186.3,237.1,186,236.9&#xA;&#9;&#9;z"/>
	<path class="st6_bug-fixing-30" d="M185.2,238.5l-11.8,6.5c-0.4,0.2-0.4,0.9,0,0.7l11.8-6.5C185.6,239.1,185.6,238.3,185.2,238.5z"/>
	<path class="st6_bug-fixing-30" d="M186,240.4l-4.8,8.2c0,0.1-0.1,0.1-0.1,0.1c0,0-0.1,0.1-0.1,0.1l-2.6,1.4v1.3c0,0,0,0.1,0,0.1&#xA;&#9;&#9;c0,0.2-0.1,0.5-0.3,0.6l-2.4,1.4c-0.4,0.2-0.4-0.5,0-0.7l2.1-1.1v-1.4c0-0.2,0.1-0.4,0.2-0.5c0-0.1,0.1-0.2,0.2-0.2l2.6-1.4&#xA;&#9;&#9;l4.7-8.1C185.9,239.6,186.3,239.9,186,240.4z"/>
	<path class="st6_bug-fixing-30" d="M189.7,220.6c0-0.2,0-0.5-0.3-0.3L188,221v-1.8c0-0.5-0.6-0.1-0.6,0.3v2.1c0,0.2,0.2,0.3,0.3,0.2&#xA;&#9;&#9;c0.1,0,0.2,0,0.2,0l1.2-0.7v5.6c0,0.5,0.6,0.1,0.6-0.3L189.7,220.6C189.7,220.6,189.7,220.6,189.7,220.6z"/>
	<path class="st6_bug-fixing-30" d="M188.6,217.9c0,0.7-0.4,1.3-1,1.7c-0.5,0.3-1,0-1-0.6c0-0.7,0.4-1.4,1-1.7C188.1,217,188.6,217.3,188.6,217.9z&#xA;&#9;&#9;"/>
	<path class="st6_bug-fixing-30" d="M196.4,216.8c-0.1-0.3,0.1-0.5,0.3-0.6l1.4-0.8v-1.9c0-0.5,0.6-0.8,0.6-0.3v2.1c0,0.2-0.1,0.4-0.3,0.5&#xA;&#9;&#9;c0,0.1-0.1,0.2-0.2,0.2l-1.2,0.7v5.6c0,0.5-0.6,0.8-0.6,0.3V217C196.4,216.9,196.4,216.9,196.4,216.8z"/>
	<path class="st6_bug-fixing-30" d="M197.6,212.9c0,0.6,0.4,0.9,1,0.6c0.6-0.4,1-1,1-1.7c0-0.7-0.4-0.9-1-0.6C198.1,211.5,197.7,212.1,197.6,212.9&#xA;&#9;&#9;z"/>
	<path class="st9_bug-fixing-30" d="M201.7,228.4c0,5.8-4,12.6-8.8,15.2s-8.7,0.1-8.7-5.6c0.3-6.2,3.6-11.9,8.8-15.2&#xA;&#9;&#9;C197.8,220.1,201.8,222.6,201.7,228.4z"/>
	<path class="st8_bug-fixing-30" d="M193.7,222.4c3.3,1.1,5.3,4.6,4.7,10.1c-0.5,3.7-1.9,7.1-4.1,10.1c4.4-3.5,7.1-8.7,7.3-14.3&#xA;&#9;&#9;C201.8,222.9,198.2,220.4,193.7,222.4z"/>
	<path class="st6_bug-fixing-30" d="M200.6,223.8c-1.5-2.3-4.3-2.7-7.6-1c-3.5,2.2-6.2,5.5-7.6,9.4l7.4-4.1v15.3c0,0.5,0.6,0.1,0.6-0.3v-15.3&#xA;&#9;&#9;L200.6,223.8z"/>
	<path class="st6_bug-fixing-30" d="M197.9,227.7c0.6,0.4,0.6,1.4,0,2.4s-1.5,1.5-2,1.1s-0.6-1.4,0-2.4S197.4,227.3,197.9,227.7z"/>
	<path class="st6_bug-fixing-30" d="M198.9,233.3c0.6,0.4,0.6,1.4,0,2.4s-1.5,1.5-2,1.1s-0.6-1.4,0-2.4S198.4,232.9,198.9,233.3z"/>
	<path class="st6_bug-fixing-30" d="M190.2,232c0.6,0.4,0.6,1.4,0,2.4s-1.5,1.5-2,1.1s-0.6-1.4,0-2.4S189.6,231.6,190.2,232z"/>
	<path class="st6_bug-fixing-30" d="M189.3,238.5c0.6,0.4,0.6,1.4,0,2.4s-1.5,1.5-2,1.1s-0.6-1.4,0-2.4S188.8,238.2,189.3,238.5z"/>
	<path class="st6_bug-fixing-30" d="M252.4,148.1l10.7-18.6c0.1-0.1,0.2-0.2,0.3-0.3c0.1-0.1,0.2-0.2,0.3-0.3l5.7-3.2v-2.9c0-0.1,0-0.2,0-0.3&#xA;&#9;&#9;c-0.1-0.5,0.2-1.1,0.6-1.4l5.3-3c0.9-0.5,0.9,1.2,0,1.6l-4.6,2.6v3.1c0,0.4-0.2,0.8-0.5,1.1c-0.1,0.2-0.3,0.4-0.5,0.5l-5.8,3.2&#xA;&#9;&#9;l-10.5,18.4C252.7,149.9,251.7,149.2,252.4,148.1z"/>
	<path class="st6_bug-fixing-30" d="M254.2,149.9l26.2-14.4c0.9-0.5,0.9,1.1,0,1.6l-26.2,14.4C253.3,152,253.3,150.4,254.2,149.9z"/>
	<path class="st6_bug-fixing-30" d="M252.3,155.9l10.5,6.9c0.1,0,0.2,0,0.3,0c0.1,0,0.2,0,0.3-0.1l5.6-3v2.9c0,0.1,0,0.2,0,0.2&#xA;&#9;&#9;c0,0.5,0.1,0.9,0.6,0.6l5.3-2.9c0.9-0.5,0.9-2.1,0-1.6l-4.6,2.5v-3.1c0-0.4-0.2-0.6-0.5-0.5s-0.3-0.1-0.5,0l-5.8,3.1l-10.4-6.8&#xA;&#9;&#9;C252.7,153.8,251.7,155.5,252.3,155.9z"/>
	<path class="st6_bug-fixing-30" d="M225.1,164.4l-10.6-6.7c-0.1,0-0.2,0-0.3,0c-0.1,0-0.2,0-0.3,0.1l-5.7,3.2v-3c0-0.1,0-0.2,0-0.2&#xA;&#9;&#9;c0-0.5-0.1-0.9-0.6-0.6l-5.3,3c-0.9,0.5-0.9,2.1,0,1.6l4.6-2.6v3c0,0.4,0.2,0.5,0.5,0.4s0.3,0.1,0.5,0l5.8-3.2l10.4,6.6&#xA;&#9;&#9;C224.7,166.4,225.7,164.7,225.1,164.4z"/>
	<path class="st6_bug-fixing-30" d="M223.2,168.1l-26.2,14.4c-0.9,0.5-0.9,2.1,0,1.6l26.2-14.4C224.1,169.2,224.1,167.6,223.2,168.1z"/>
	<path class="st6_bug-fixing-30" d="M225.1,172.1l-10.7,18.4c-0.1,0.1-0.2,0.2-0.3,0.4c-0.1,0.1-0.2,0.2-0.3,0.3l-5.7,3.1v2.8c0,0.1,0,0.2,0,0.3&#xA;&#9;&#9;c0.1,0.5-0.2,1-0.6,1.3l-5.4,2.9c-0.9,0.5-0.9-1.1,0-1.6l4.6-2.5v-3c0-0.4,0.2-0.8,0.5-1c0.1-0.2,0.3-0.4,0.5-0.5l5.8-3.2&#xA;&#9;&#9;l10.5-18.1C224.7,170.4,225.7,171,225.1,172.1z"/>
	<path class="st6_bug-fixing-30" d="M233.2,128.2c0.1-0.5-0.1-1-0.6-0.7l-3.1,1.7v-4.1c0-1-1.4-0.3-1.4,0.8v4.7c0,0.5,0.4,0.6,0.7,0.4&#xA;&#9;&#9;c0.1,0.1,0.3,0.1,0.5,0l2.6-1.5V142c0,1.1,1.4,0.3,1.4-0.8v-12.7C233.2,128.4,233.2,128.3,233.2,128.2z"/>
	<path class="st6_bug-fixing-30" d="M230.7,122.3c-0.1,1.6-0.9,3-2.2,3.8c-1.2,0.7-2.2,0.1-2.2-1.4c0.1-1.6,0.9-3,2.2-3.8&#xA;&#9;&#9;C229.7,120.3,230.7,120.9,230.7,122.3z"/>
	<path class="st6_bug-fixing-30" d="M248.2,119.8c-0.1-0.5,0.2-1.1,0.6-1.4l3.1-1.8v-4.1c0-1,1.4-1.8,1.4-0.8v4.7c0,0.5-0.3,1-0.8,1.2&#xA;&#9;&#9;c-0.1,0.2-0.3,0.4-0.5,0.5l-2.6,1.4v12.5c0,1-1.4,1.8-1.4,0.8v-12.7C248.1,120.1,248.1,120,248.2,119.8z"/>
	<path class="st6_bug-fixing-30" d="M250.8,111.1c0,1.4,1,2.1,2.2,1.4c1.3-0.9,2.1-2.3,2.2-3.9c0-1.4-1-2.1-2.2-1.4&#xA;&#9;&#9;C251.6,108.1,250.8,109.5,250.8,111.1z"/>
	<path class="st9_bug-fixing-30" d="M259.8,145.5c-0.1,12.8-8.8,28-19.5,33.8S221,179.6,221,167s8.8-27.8,19.5-33.8S259.9,132.6,259.8,145.5z"/>
	<path class="st8_bug-fixing-30" d="M242.2,132.3c7.4,2.6,11.8,10.3,10.4,22.5c-1.1,8.1-4.2,15.8-9,22.4c9.2-6.9,16.2-20.2,16.3-31.7&#xA;&#9;&#9;C259.9,133.4,252.1,127.8,242.2,132.3z"/>
	<path class="st6_bug-fixing-30" d="M257.3,135.3c-3.3-5.1-9.6-6.2-16.8-2.2s-13.5,12.1-16.9,20.9l16.5-9.1l-0.1,33.8c0,1,1.4,0.3,1.4-0.7&#xA;&#9;&#9;l0.1-33.9L257.3,135.3z"/>
	<path class="st6_bug-fixing-30" d="M251.5,143.9c1.2,0.8,1.2,3.2,0,5.4s-3.3,3.3-4.5,2.5s-1.2-3.2,0-5.4S250.3,143.1,251.5,143.9z"/>
	<path class="st6_bug-fixing-30" d="M253.7,156.4c1.2,0.8,1.2,3.2,0,5.4s-3.3,3.3-4.5,2.5s-1.2-3.2,0-5.4S252.4,155.6,253.7,156.4z"/>
	<path class="st6_bug-fixing-30" d="M234.2,153.4c1.2,0.8,1.2,3.2,0,5.4s-3.3,3.3-4.5,2.5s-1.2-3.2,0-5.3S233,152.7,234.2,153.4z"/>
	<path class="st6_bug-fixing-30" d="M232.4,168.1c1.2,0.8,1.2,3.2,0,5.3s-3.2,3.3-4.5,2.5s-1.2-3.2,0-5.3S231.2,167.3,232.4,168.1z"/>
	<polygon class="st10_bug-fixing-30" points="133.4,190 165.2,171.4 165.2,177 133.4,195.6 &#9;"/>
	<polygon class="st9_bug-fixing-30" points="165.2,171.4 165.2,177 160,180.1 160,174.4 &#9;"/>
	<polygon class="st0_bug-fixing-30" points="160,174.5 160,180.1 154.8,183.2 154.8,177.5 &#9;"/>
	<polygon class="st9_bug-fixing-30" points="168.5,199.1 168.5,204.8 163.3,207.8 163.3,202.2 &#9;"/>
	<polygon class="st0_bug-fixing-30" points="163.3,202.3 163.3,207.9 158.1,211 158.1,205.3 &#9;"/>
	<polygon class="st9_bug-fixing-30" points="173.7,201.7 173.7,207.3 168.5,210.4 168.5,204.7 &#9;"/>
	<polygon class="st0_bug-fixing-30" points="168.5,204.8 168.5,210.4 163.3,213.5 163.3,207.8 &#9;"/>
	<polygon class="st9_bug-fixing-30" points="305.5,72 305.5,77.7 300.2,80.7 300.2,75.1 &#9;"/>
	<polygon class="st0_bug-fixing-30" points="300.2,75.2 300.2,80.8 295,83.9 295,78.2 &#9;"/>
	<polygon class="st9_bug-fixing-30" points="310.7,74.6 310.7,80.2 305.5,83.2 305.5,77.6 &#9;"/>
	<polygon class="st0_bug-fixing-30" points="305.5,77.7 305.5,83.3 300.2,86.4 300.2,80.7 &#9;"/>
</g>
<g id="character">
	<path class="st6_bug-fixing-30" d="M303,303.9c0,0-8.3-3.7-10.3-3.8s-5.3,0.5-2.4,4.2c0,0,8.7,5.7,9.9,5.9s4-0.7,4-0.4s0.3,2.5,0.3,2.5&#xA;&#9;&#9;s7.3,2.8,7.6-2.1c0-0.6-1-9.7-1-9.7"/>
	<path class="st6_bug-fixing-30" d="M312.5,282.5c-1.4-9.4-4.1-18.5-5.2-28c-0.7-6-1.2-12-1.9-17.9s-3-11.8-4.4-17.7c-0.1-0.3,0.1-0.6,0.3-0.7&#xA;&#9;&#9;c0-0.2-0.1-0.4-0.2-0.6c-0.7-0.7-1.5-1.4-2.2-2l-10.2,6.9c0,0,0,6.2,0.4,15.3c1.2,5.3,2.1,10,3.4,15c-0.3,0.3-0.4,0.8-0.3,1.2&#xA;&#9;&#9;c3.3,15.8,5.7,31.7,7.2,47.8c0,0.5,0.4,1,0.9,1.2l0.3,2.5c8.9,3.4,10.8-2.5,10.8-2.5s0.4-5.1,0.9-12.1&#xA;&#9;&#9;C312.6,287.9,312.6,285.2,312.5,282.5z"/>
	<path class="st12_bug-fixing-30" d="M253.8,192.7l-0.2,0.1c0.3-0.6,0-1.2-0.5-1.5c0,0,0,0,0,0c-0.1-0.1-0.2-0.1-0.3-0.1c-0.5-0.1-1.1-0.1-1.6-0.2&#xA;&#9;&#9;c0-0.1-0.1-0.1-0.2-0.1c-0.2-0.1-0.4-0.2-0.6-0.3c-0.2-0.2-0.6-0.3-0.9-0.3h-3.4c-0.1-0.1-0.2-0.2-0.3-0.3c-2.6-2.1-5-4.4-7.3-6.9&#xA;&#9;&#9;c-0.8-0.8-2.4,0.1-1.8,1.2c0.7,1.3,1.4,2.5,2.3,3.6c-2.8-1.9-4-2.1-6.6-4.2c-1.1-0.9-2.3,0.9-1.2,1.8c0.6,0.5,3,1.7,3.7,2.2&#xA;&#9;&#9;c-1.2-0.7-4.1-2.1-5.3-2.9s-2.4,1.1-1.2,1.8c1.9,1.1,3.8,2.3,5.7,3.5c-1.6-0.6-3.2-1.3-4.8-2c-1.3-0.6-1.9,1.5-0.7,2&#xA;&#9;&#9;c1.8,0.8,3.6,1.6,5.5,2.2c-1.1,0-2.2-0.1-3.3-0.3c-1.4-0.2-1.5,1.9-0.2,2.1c1.1,0.2,2.2,0.3,3.4,0.5l1.7,0.2c0.7,0,1.3,0.2,1.9,0.4&#xA;&#9;&#9;c2.3,0.9,4.8,1.4,7.2,1.5l0.5,0.2c0.3,0.1,0.7,0.1,0.9-0.1c2.9,0,5.8-0.8,8.2-2.3C256,193.9,255,192,253.8,192.7z"/>
	<path class="st12_bug-fixing-30" d="M271.8,176.3c0.1-0.4-6.3,0-6.9,0c-3.4,0-6.9-0.2-10.3-0.6c-0.1,0-0.2,0-0.3,0c-0.7-0.1-1.3-0.1-2-0.1&#xA;&#9;&#9;c-0.4,0-0.8,0.4-0.8,0.8c0,0.2,0.1,0.4,0.3,0.6c1.4,1,3.1,1.6,4.9,1.7c0.1,0.5,0.3,1.1,0.5,1.7c0.1-0.1,0.3,0,0.4,0.1&#xA;&#9;&#9;c0.2,0.2,0.3,0.4,0.4,0.7c0.1,0.2,0.1,0.3,0.2,0.5c0,0.1,0,0.1,0,0.2c0.5,0.5,1.3,0.8,2,0.7c0.4,0.6,1,1.1,1.8,1.3h0.2&#xA;&#9;&#9;c1-0.5,2-0.9,3-1.3c0.2,0,0.4,0.1,0.4,0.3c0,0,0,0,0,0c0,0,0,0.1,0,0.1c0.7-0.4,1.4-0.9,2-1.4c0.1-0.1,0.2-0.3,0.3-0.4l0.4-0.1&#xA;&#9;&#9;c0.4-0.1,0.7-0.5,0.6-0.9c-0.1-0.2-0.2-0.4-0.4-0.5h0.4c0.3,0.4,0.9,0.4,1.2,0.1c0,0,0.1-0.1,0.1-0.1c0.3-0.3,0.3-0.9,0-1.2&#xA;&#9;&#9;c-0.1-0.1-0.2-0.1-0.3-0.2h1.1c0.1,0,0.2-0.1,0.2-0.2c0,0,0,0,0,0c0-0.1,0-0.1-0.1-0.2c0,0,0-0.1,0-0.1c0.6,0,1.2,0.1,1.8,0.2&#xA;&#9;&#9;C279.8,177.5,272.1,176.3,271.8,176.3z M269.9,179c-0.1,0.2-0.4,0.3-0.6,0.2c0.2-0.2,0.3-0.4,0.2-0.6l0,0c0.1,0,0.2-0.1,0.2-0.2&#xA;&#9;&#9;l0,0l0,0c0.3,0.1,0.4,0.3,0.3,0.6c0,0,0,0,0,0C270,179,269.9,179,269.9,179L269.9,179z"/>
	<path class="st12_bug-fixing-30" d="M271.2,177.1c-1,0.4-2,0.5-3.1,0.5c-0.9-0.1-1.7,0.6-1.7,1.5v0.1c-0.4-0.2-0.8-0.4-1.1-0.6&#xA;&#9;&#9;c-1.8-1.1-3.7,1.7-1.8,2.8c1.4,1,3.1,1.5,4.8,1.5c1.6-0.2,3.2-0.6,4.7-1.4c0.3-1,0.4-2,0.3-3.1C273,177.5,272.1,176.9,271.2,177.1z&#xA;&#9;&#9;"/>
	<path class="st6_bug-fixing-30" d="M269.2,181.9c-2.4,1.1-5.2,0.6-6.9-1.4c0,0-0.1-0.1-0.2-0.1l0,0l-2.3-0.1h-1c-0.6-0.1-2.5-0.9-1-1.7&#xA;&#9;&#9;c0.8-0.2,1.5-0.2,2.3-0.1h2.3c0.1,0,0.2-0.1,0.2-0.2c0-0.1-0.1-0.2-0.2-0.2c-1.4,0-2.8,0-4.2,0.1c-0.6,0-1.4,0.1-1.4,0.9&#xA;&#9;&#9;c-0.1,0.6,0.3,1.1,0.8,1.4c0.3,0.5,0.3,1.2,0.8,1.6c0.5,0.3,1.1,0.5,1.7,0.5h0.4c0,0,0,0.1,0,0.1c0.4,0.6,0.8,1.3,1.6,1.2&#xA;&#9;&#9;c0.3,0,0.6-0.2,0.9-0.3l1.5-0.6c0.1,0,0.1-0.1,0.1-0.2c0,0,0,0,0,0l0,0c1.6,0.5,3.4,0.4,4.9-0.3&#xA;&#9;&#9;C269.6,182.2,269.4,181.8,269.2,181.9z M259.4,181.9c-0.5,0-1-0.3-1.2-0.8c-0.1-0.2-0.1-0.3-0.2-0.5c1.3,0.3,2.6,0.3,3.9,0.3&#xA;&#9;&#9;l0.1,0.1c-0.1,0-0.1,0.1-0.1,0.2C261.9,182.2,260.1,182.1,259.4,181.9L259.4,181.9z M262.4,183.2c-0.3,0.2-0.7,0.1-1-0.1&#xA;&#9;&#9;c-0.2-0.2-0.4-0.4-0.5-0.7c0.7,0,1.5-0.3,1.5-1.1c0.5,0.5,1.1,0.9,1.8,1.1C263.6,182.7,263,183,262.4,183.2L262.4,183.2z"/>
	<path class="st8_bug-fixing-30" d="M293.9,174.1c-1.1-0.4-26.5,2.7-28.6,2.2c0,4.7,2.9,8.9,7.2,10.6c0,0,18.5,3.7,24.3,0.8"/>
	<path class="st6_bug-fixing-30" d="M284.9,317.6l-4.9,1.8c-0.3,0.9-1.1,1.6-2,1.8c-0.2,0.2-0.4,0.4-0.7,0.4c-2,0.1-4-0.2-5.9-0.9&#xA;&#9;&#9;c-2.4-0.7-11.6-4.3-9,2.3c1.7,1.2,3.6,2.2,5.3,3.3c1,0.6,1.9,1.2,2.9,1.7c0.5,0.4,1.1,0.6,1.7,0.8c1.4,0.2,4.5-0.8,4.6-0.5&#xA;&#9;&#9;s0.4,2.9,0.4,2.9s8.4,3.2,8.8-2.4C286.1,328,284.9,317.6,284.9,317.6z"/>
	<path class="st6_bug-fixing-30" d="M291.8,267.1c1-16.6,1.6-33.3,5.1-49.6c0.1-4.2,2.9-1.5,2.7-3.2c-1.5-13.7-21.4,2.6-21.4,2.6&#xA;&#9;&#9;c-0.8,0.7-0.9,4.9-1.1,5.8c-0.9,5.2-1.7,10.5-2.3,15.8c-3.3,26.6-2.1,53.2-0.7,79.9c4.2,4.3,7,5.6,13.8,2.8&#xA;&#9;&#9;c1.4-17.5,2.6-35,3.8-52.5L291.8,267.1z"/>
	<path class="st9_bug-fixing-30" d="M303.1,204.4c0.8-8.2,1-16.5,0.5-24.7c-0.1-2.2-0.7-7.5-2.9-8.7c-4.7-2.8-11.3-0.3-15.3,2.6&#xA;&#9;&#9;c-5.3,3.9-8.4,40.4-8.4,49.4c7.3,2.9,16.9,4,24.4,0.9c0.7-0.3,0.8-9.2,0.9-10.4C302.5,210.6,302.8,207.5,303.1,204.4z"/>
	<path class="st8_bug-fixing-30" d="M287.9,192.5c-0.5,5.3-4.2,9.7-9.3,11.1c0,0.5-0.2,3.7-0.2,4.1c6-1.4,10.4-8.9,11-15.3&#xA;&#9;&#9;C289.5,191.5,288,191.5,287.9,192.5z"/>
	<path class="st12_bug-fixing-30" d="M283.3,158.9c-0.5,0.2-2.8,10.4-0.1,15.9s11.3-2.3,13-7.1S292.1,154.8,283.3,158.9z"/>
	<path class="st6_bug-fixing-30" d="M283.7,160.2c0.4,1.8,1.7,3.2,3.5,3.6c2.9,0.5,5.3,0.7,5.4,2s-5,0.8-4.4,3.6c0.4,1.9,1,3.8,1.9,5.6&#xA;&#9;&#9;c0.6,1.4,7.9-4.5,9.2-12.4s-5.8-8.6-6.2-8.6c-1.3-1.3-3-2-4.8-2c-3.5-0.1-4.1,1.4-4.1,1.4c-1.7-0.6-3.7,0-4.7,1.4&#xA;&#9;&#9;c-2.6,3-1,7.3,2.8,8.4L283.7,160.2z"/>
	<path class="st9_bug-fixing-30" d="M287.9,178.8c0,0-17.2,9.8-23.3,9.8c-6-0.4-11.9-1.1-17.8-2.2c-4.3,3.6-4.5,9.9-1.9,14.7&#xA;&#9;&#9;c7.5,1.2,29.7,4.4,36.7,1c8.4-4.1,17.7-9.8,17.7-9.8S307.5,184.1,287.9,178.8z"/>
</g>
</svg>